<svg width="32" height="32" viewBox="0 0 32 32" fill="none" xmlns="http://www.w3.org/2000/svg">
<path d="M31.4219 7.12256L28.6143 4.31487C28.2293 3.9296 27.7611 3.73689 27.2107 3.73689C26.6598 3.73689 26.1916 3.9296 25.8066 4.31487L12.2632 17.8787L6.19351 11.7884C5.80809 11.4029 5.34017 11.2104 4.78981 11.2104C4.23909 11.2104 3.77116 11.4029 3.38575 11.7884L0.578054 14.5961C0.192636 14.9815 0 15.4495 0 16.0002C0 16.5504 0.192636 17.0189 0.578054 17.4042L8.05147 24.8774L10.8594 27.6851C11.2446 28.0707 11.7126 28.2632 12.2632 28.2632C12.8136 28.2632 13.2816 28.0702 13.6671 27.6851L16.4749 24.8774L31.4219 9.93047C31.807 9.54505 32 9.07706 32 8.52641C32.0003 7.97605 31.807 7.50798 31.4219 7.12256Z" fill="#55DB03"/>
</svg>
