<svg width="180" height="180" viewBox="0 0 180 180" fill="none" xmlns="http://www.w3.org/2000/svg">
<circle cx="90" cy="90" r="90" fill="#EEF2F5"/>
<circle cx="88.973" cy="89.973" r="72.973" fill="#FAFAFA"/>
<g clip-path="url(#clip0)">
<path d="M121.903 63.1229L96.8698 49.5672C94.4951 48.2809 91.2299 49.2704 89.9436 51.6451L75.2995 78.8553H57.4892C55.2134 78.8553 53.4324 80.6364 53.4324 82.9121V90.0363V126.943C53.4324 129.219 55.2134 131 57.4892 131H114.383C116.659 131 118.44 129.219 118.44 126.943V116.653H120.122C121.013 116.653 121.705 115.96 121.705 115.07V103.295C121.705 102.405 121.013 101.712 120.122 101.712H118.44V90.1352C118.44 88.2552 117.055 86.5731 115.274 86.1774L123.981 70.0491C125.267 67.5755 124.377 64.5081 121.903 63.1229ZM104.093 57.0871L88.4594 86.0784H84.0068L100.729 55.3061L104.093 57.0871ZM92.813 53.1293C93.3077 52.2388 94.4951 51.843 95.3856 52.3377L97.8593 53.723L80.4447 86.0784H75.0027L92.813 53.1293ZM56.4997 82.8132C56.4997 82.5163 56.8955 82.0216 57.3903 82.0216H73.5185L71.3417 85.9795H57.3903C57.0934 85.9795 56.7966 85.9795 56.4997 86.0784V82.8132V82.8132ZM115.175 126.943C115.175 127.438 114.779 127.834 114.284 127.834H57.3903C56.8955 127.834 56.4997 127.438 56.4997 126.943V90.1352C56.4997 89.6405 56.8955 89.2447 57.3903 89.2447H72.3311H78.6637H90.2404H112.503H114.185C114.68 89.2447 115.076 89.6405 115.076 90.1352V101.712H109.04C106.369 101.712 104.291 103.889 104.291 106.461V111.903C104.291 114.575 106.468 116.653 109.04 116.653H115.175V126.943ZM118.341 104.878H118.44V113.487H118.341H109.04C108.15 113.487 107.457 112.794 107.457 111.903V106.461C107.457 105.571 108.15 104.878 109.04 104.878H118.341V104.878ZM121.112 68.466L111.613 86.0784H92.0214L106.863 58.6703L120.32 65.9923C121.31 66.3881 121.606 67.5755 121.112 68.466Z" fill="#420076"/>
<path d="M115.076 66.9818L114.284 66.586C112.305 65.4976 109.634 66.2891 108.545 68.2681L107.556 70.148C107.061 71.1375 106.863 72.3249 107.259 73.4133C107.556 74.5017 108.348 75.3922 109.337 75.8869L110.129 76.2827C110.722 76.5795 111.415 76.7774 112.108 76.7774C113.691 76.7774 115.076 75.8869 115.868 74.6006L116.857 72.7206C117.846 70.6428 117.055 68.0702 115.076 66.9818ZM113.988 71.2364L112.998 73.1164C112.701 73.6112 112.009 73.809 111.514 73.5122L110.722 73.0175C110.524 72.9185 110.327 72.6217 110.228 72.4238C110.129 72.127 110.129 71.8301 110.327 71.6322L111.316 69.7522C111.514 69.4554 111.91 69.1586 112.305 69.1586C112.503 69.1586 112.602 69.1586 112.8 69.2575L113.592 69.6533C113.988 70.0491 114.185 70.6428 113.988 71.2364Z" fill="#420076"/>
</g>
<defs>
<clipPath id="clip0">
<rect width="82" height="82" fill="white" transform="translate(48 49)"/>
</clipPath>
</defs>
</svg>
