<svg width="100" height="100" viewBox="0 0 100 100" fill="none" xmlns="http://www.w3.org/2000/svg">
<path d="M50 0.000999451C22.43 0.000999451 0 22.4306 0 50.0006C0 77.5707 22.43 100.001 50 100.001C77.57 100.001 100 77.5707 100 50.0006C100 22.4306 77.5704 0.000999451 50 0.000999451ZM50 94.3489C25.5463 94.3489 5.65176 74.4543 5.65176 50.0006C5.65176 25.547 25.5463 5.65276 50 5.65276C74.4537 5.65276 94.3482 25.547 94.3482 50.0006C94.3482 74.4543 74.454 94.3489 50 94.3489Z" fill="white"/>
<rect width="5.83733" height="40.6839" rx="2.91866" transform="matrix(-0.507921 -0.861404 0.811993 -0.583666 34.9649 53.7741)" fill="white"/>
<rect width="5.83729" height="40.6843" rx="2.91864" transform="matrix(-0.507988 0.861364 -0.811944 -0.583735 68 69.9227)" fill="white"/>
</svg>
