<svg width="100" height="100" viewBox="0 0 100 100" fill="none" xmlns="http://www.w3.org/2000/svg">
<path d="M50 0C22.43 0 0 22.4296 0 49.9996C0 77.5697 22.43 99.9996 50 99.9996C77.57 99.9996 100 77.5697 100 49.9996C100 22.4296 77.5704 0 50 0ZM50 94.3479C25.5463 94.3479 5.65176 74.4533 5.65176 49.9996C5.65176 25.546 25.5463 5.65176 50 5.65176C74.4537 5.65176 94.3482 25.546 94.3482 49.9996C94.3482 74.4533 74.454 94.3479 50 94.3479Z" fill="white"/>
<rect width="5.83733" height="40.6839" rx="2.91866" transform="matrix(0.507921 0.861404 -0.811993 0.583666 67.0351 46.1766)" fill="white"/>
<rect width="5.83729" height="40.6843" rx="2.91864" transform="matrix(0.507988 -0.861364 0.811944 0.583735 34 30.028)" fill="white"/>
</svg>
