<svg width="100" height="100" viewBox="0 0 100 100" fill="none" xmlns="http://www.w3.org/2000/svg">
<path d="M73.1609 46.6028L43.7413 27.3408C43.0174 26.8672 42.2221 26.6167 41.4406 26.6167C39.3604 26.6167 37.7911 28.3107 37.7911 30.5571V69.4438C37.7911 71.6902 39.36 73.3842 41.4402 73.3842C42.2221 73.3842 43.0178 73.1337 43.7409 72.6597L73.1609 53.3951C74.3858 52.5929 75.0889 51.3548 75.0886 49.9987C75.0889 48.6427 74.3862 47.4053 73.1609 46.6028ZM43.4432 66.0995V33.901L68.0306 49.9991L43.4432 66.0995Z" fill="white"/>
<path d="M50 0.000999451C22.43 0.000999451 0 22.4306 0 50.0006C0 77.5707 22.43 100.001 50 100.001C77.57 100.001 100 77.5707 100 50.0006C100 22.4306 77.5704 0.000999451 50 0.000999451ZM50 94.3489C25.5463 94.3489 5.65176 74.4543 5.65176 50.0006C5.65176 25.547 25.5463 5.65276 50 5.65276C74.4537 5.65276 94.3482 25.547 94.3482 50.0006C94.3482 74.4543 74.454 94.3489 50 94.3489Z" fill="white"/>
</svg>
